{
    "asset" : {
        "generator" : "Khronos glTF Blender I/O v1.4.40",
        "version" : "2.0"
    },
    "extensionsUsed" : [
        "KHR_materials_unlit"
    ],
    "scene" : 0,
    "scenes" : [
        {
            "name" : "Scene",
            "nodes" : [
                6
            ]
        }
    ],
    "nodes" : [
        {
            "mesh" : 0,
            "name" : "Mesh_1"
        },
        {
            "mesh" : 1,
            "name" : "Mesh_2"
        },
        {
            "mesh" : 2,
            "name" : "Mesh_3"
        },
        {
            "mesh" : 3,
            "name" : "Mesh_4"
        },
        {
            "children" : [
                0,
                1,
                2,
                3
            ],
            "name" : "WILD.obj.cleaner.materialmerger.gles"
        },
        {
            "children" : [
                4
            ],
            "name" : "RootNode (model correction matrix)"
        },
        {
            "children" : [
                5
            ],
            "name" : "RootNode (gltf orientation matrix)",
            "rotation" : [
                -0.7071068286895752,
                0,
                0,
                0.7071068286895752
            ]
        }
    ],
    "materials" : [
        {
            "doubleSided" : true,
            "extensions" : {
                "KHR_materials_unlit" : {}
            },
            "name" : "lambert2SG",
            "pbrMetallicRoughness" : {
                "baseColorTexture" : {
                    "index" : 0,
                    "texCoord" : 0
                },
                "metallicFactor" : 0,
                "roughnessFactor" : 0.9
            }
        }
    ],
    "meshes" : [
        {
            "name" : "Mesh_1",
            "primitives" : [
                {
                    "attributes" : {
                        "POSITION" : 0,
                        "NORMAL" : 1,
                        "TEXCOORD_0" : 2
                    },
                    "indices" : 3,
                    "material" : 0
                }
            ]
        },
        {
            "name" : "Mesh_2",
            "primitives" : [
                {
                    "attributes" : {
                        "POSITION" : 4,
                        "NORMAL" : 5,
                        "TEXCOORD_0" : 6
                    },
                    "indices" : 7,
                    "material" : 0
                }
            ]
        },
        {
            "name" : "Mesh_3",
            "primitives" : [
                {
                    "attributes" : {
                        "POSITION" : 8,
                        "NORMAL" : 9,
                        "TEXCOORD_0" : 10
                    },
                    "indices" : 11,
                    "material" : 0
                }
            ]
        },
        {
            "name" : "Mesh_4",
            "primitives" : [
                {
                    "attributes" : {
                        "POSITION" : 12,
                        "NORMAL" : 13,
                        "TEXCOORD_0" : 14
                    },
                    "indices" : 15,
                    "material" : 0
                }
            ]
        }
    ],
    "textures" : [
        {
            "sampler" : 0,
            "source" : 0
        }
    ],
    "images" : [
        {
            "bufferView" : 4,
            "mimeType" : "image/jpeg",
            "name" : "lambert2SG_baseColor"
        }
    ],
    "accessors" : [
        {
            "bufferView" : 0,
            "componentType" : 5126,
            "count" : 2556,
            "max" : [
                7.4890899658203125,
                8.795122146606445,
                24.521203994750977
            ],
            "min" : [
                -7.50978422164917,
                -10.827909469604492,
                0.6331689953804016
            ],
            "type" : "VEC3"
        },
        {
            "bufferView" : 1,
            "componentType" : 5126,
            "count" : 2556,
            "type" : "VEC3"
        },
        {
            "bufferView" : 2,
            "componentType" : 5126,
            "count" : 2556,
            "type" : "VEC2"
        },
        {
            "bufferView" : 3,
            "componentType" : 5123,
            "count" : 13056,
            "type" : "SCALAR"
        },
        {
            "bufferView" : 5,
            "componentType" : 5126,
            "count" : 2456,
            "max" : [
                10.753653526306152,
                10.308515548706055,
                26.31064224243164
            ],
            "min" : [
                -8.360822677612305,
                -5.941476821899414,
                17.50869369506836
            ],
            "type" : "VEC3"
        },
        {
            "bufferView" : 6,
            "componentType" : 5126,
            "count" : 2456,
            "type" : "VEC3"
        },
        {
            "bufferView" : 7,
            "componentType" : 5126,
            "count" : 2456,
            "type" : "VEC2"
        },
        {
            "bufferView" : 8,
            "componentType" : 5123,
            "count" : 13680,
            "type" : "SCALAR"
        },
        {
            "bufferView" : 9,
            "componentType" : 5126,
            "count" : 1388,
            "max" : [
                1.572651982307434,
                9.188413619995117,
                25.255369186401367
            ],
            "min" : [
                -7.676084995269775,
                -4.930098056793213,
                11.579798698425293
            ],
            "type" : "VEC3"
        },
        {
            "bufferView" : 10,
            "componentType" : 5126,
            "count" : 1388,
            "type" : "VEC3"
        },
        {
            "bufferView" : 11,
            "componentType" : 5126,
            "count" : 1388,
            "type" : "VEC2"
        },
        {
            "bufferView" : 12,
            "componentType" : 5123,
            "count" : 7836,
            "type" : "SCALAR"
        },
        {
            "bufferView" : 13,
            "componentType" : 5126,
            "count" : 5722,
            "max" : [
                6.668169021606445,
                5.931692123413086,
                21.08879280090332
            ],
            "min" : [
                -5.610215187072754,
                -5.21466588973999,
                0.019874999299645424
            ],
            "type" : "VEC3"
        },
        {
            "bufferView" : 14,
            "componentType" : 5126,
            "count" : 5722,
            "type" : "VEC3"
        },
        {
            "bufferView" : 15,
            "componentType" : 5126,
            "count" : 5722,
            "type" : "VEC2"
        },
        {
            "bufferView" : 16,
            "componentType" : 5123,
            "count" : 31272,
            "type" : "SCALAR"
        }
    ],
    "bufferViews" : [
        {
            "buffer" : 0,
            "byteLength" : 30672,
            "byteOffset" : 0
        },
        {
            "buffer" : 0,
            "byteLength" : 30672,
            "byteOffset" : 30672
        },
        {
            "buffer" : 0,
            "byteLength" : 20448,
            "byteOffset" : 61344
        },
        {
            "buffer" : 0,
            "byteLength" : 26112,
            "byteOffset" : 81792
        },
        {
            "buffer" : 0,
            "byteLength" : 952841,
            "byteOffset" : 107904
        },
        {
            "buffer" : 0,
            "byteLength" : 29472,
            "byteOffset" : 1060748
        },
        {
            "buffer" : 0,
            "byteLength" : 29472,
            "byteOffset" : 1090220
        },
        {
            "buffer" : 0,
            "byteLength" : 19648,
            "byteOffset" : 1119692
        },
        {
            "buffer" : 0,
            "byteLength" : 27360,
            "byteOffset" : 1139340
        },
        {
            "buffer" : 0,
            "byteLength" : 16656,
            "byteOffset" : 1166700
        },
        {
            "buffer" : 0,
            "byteLength" : 16656,
            "byteOffset" : 1183356
        },
        {
            "buffer" : 0,
            "byteLength" : 11104,
            "byteOffset" : 1200012
        },
        {
            "buffer" : 0,
            "byteLength" : 15672,
            "byteOffset" : 1211116
        },
        {
            "buffer" : 0,
            "byteLength" : 68664,
            "byteOffset" : 1226788
        },
        {
            "buffer" : 0,
            "byteLength" : 68664,
            "byteOffset" : 1295452
        },
        {
            "buffer" : 0,
            "byteLength" : 45776,
            "byteOffset" : 1364116
        },
        {
            "buffer" : 0,
            "byteLength" : 62544,
            "byteOffset" : 1409892
        }
    ],
    "samplers" : [
        {
            "magFilter" : 9729,
            "minFilter" : 9986
        }
    ],
    "buffers" : [
        {
            "byteLength" : 1472436,
            "uri" : "data:application/octet-stream;base64,"
        }
    ]
}
