<svg xmlns="http://www.w3.org/2000/svg" viewBox="0 0 461.12 517.98"><defs><style>.cls-1{fill:#4f95fc;}.cls-2{fill:#9acfe2;}.cls-3{fill:#487ca0;}.cls-4{fill:#ffa95c;}.cls-5{fill:#fc9b4c;}.cls-6{fill:#ffd05a;}.cls-7{fill:#ffed69;}.cls-8{fill:#f4876e;}.cls-9{fill:#2f5ef4;}.cls-10{fill:#66a1ff;}.cls-11{fill:#61d6ff;}.cls-12{fill:#133260;}.cls-13{fill:#ffaf97;}.cls-14{fill:#fff;}.cls-15{fill:#db3b65;}.cls-16{fill:#a31a3e;}.cls-17{fill:#b8e6ff;}</style></defs><g id="Warstwa_2" data-name="Warstwa 2"><g id="cafe"><g id="man"><ellipse class="cls-1" cx="251.05" cy="506.77" rx="203.18" ry="11.21"/><path class="cls-2" d="M417.38,494.19l-52.31-20.85V411.08c-2,1.74-3.93,3.5-5.87,5.28v56.78l-47.84,21.05,1.77,2.36,46.07-15.34h5.87l50.37,15.34Z"/><path class="cls-3" d="M365.07,374H359.2v42.39c1.94-1.78,3.89-3.54,5.87-5.28Z"/><path class="cls-4" d="M402.93,226.56c-40.94-.44-59.59,13.06-70,30.52-2.39,4-7.9,13-7.9,13-5.43,11.63-11.47,6-20.6,13.72-11.74,9.93-11.74,49.67-18.53,66.55-2.27,5.65-1.91,9.28.16,11.4a5.26,5.26,0,0,0-1.18,3.52c.79,6.79,21.84,17.1,49.19,20.91a147,147,0,0,0,38.66.39c32.82-4.2,61.32-12.89,67.24-21.3,3.22-4.58,19.3-94.61,21-108.22S450.56,227.07,402.93,226.56Z"/><path class="cls-5" d="M397.54,364.64c0,7.62-21.61,13.79-48.25,13.79S301,372.26,301,364.64s21.61-13.79,48.26-13.79S397.54,357,397.54,364.64Z"/><path class="cls-6" d="M461,257.08s-10.64,80.47-13.3,90.52-2.66,22.12-20,27.79-60.52,12.07-60.52,12.07,25.28-5.28,32.59-22.16,7.32-56.62,20-66.55S453.64,287.8,461,257.08Z"/><path class="cls-7" d="M405.35,370.68c7.32-16.88,7.32-56.62,20-66.56,9.09-7.14,22.65-9.67,32.27-22,1.94-14.23,3.38-25.08,3.38-25.08-7.32,30.72-28.6,31.73-41.24,41.67s-12.63,49.68-20,66.55-32.59,22.16-32.59,22.16,13.28-2,28.07-4.68A30.55,30.55,0,0,0,405.35,370.68Z"/><path class="cls-8" d="M300.38,205.33a150.42,150.42,0,0,1-6.18,28.72c-2.94,8.81-7.92,19.36-13.05,22.23-1.37.77-11.85,2.3-17.43,2.21-9.5-.14-16,2.48-19.6,5a52.36,52.36,0,0,0-7.75,6.47,24.49,24.49,0,0,0-3.66,4.45c-1.55,2.29-2.83,6.62-2.06,8.08a1,1,0,0,0,.88.55c.77,0,1.19-.75,1.89-2a26.6,26.6,0,0,1,2.15-3.36,15.48,15.48,0,0,1,1.65-1.87c-.3.5-.66,1.11-1.08,1.84-1.11,1.92-1.25,4-.75,4.91a.84.84,0,0,0,.75.48c.84,0,1.35-.87,1.94-1.87a10.6,10.6,0,0,1,1.44-2,22.2,22.2,0,0,1,2.2-1.92,6.43,6.43,0,0,0-.85,2c-.17.78-.49,2.68.15,3.48a1,1,0,0,0,.76.37c.76,0,1.42-.88,2.25-2l.77-1a11.23,11.23,0,0,1,2.12-1.87,3.88,3.88,0,0,0-.42,1.3,4.41,4.41,0,0,0,.6,3.19,1,1,0,0,0,.79.38c.43,0,.61-.37.91-1,.37-.78.55-2.42,1.93-3.8.9-.91,2.24-1.63,3-2.71H254c2.55-.2,6.86-3.82,6.86-3.82s19.58,9.4,33.77,7.78c42-4.78,47.47-71.54,47.47-71.54Z"/><path class="cls-9" d="M392.25,323.18c0-2.08,0-3.25,0-3.25l-67.65.23-5-.23-1.59.25-19.81.06s-102.38-3-113.66,9.79-79.87,150.91-79.87,150.91h23.23s81.34-88,89.06-98.49c8.33,39.62,31.51,99.15,31.51,99.15l19.38,6.67s-2.21-75.93-4-94.22c-.66-6.61-3.14-14.42,7.76-16.46,19.6-3.67,46-5.86,60.22-6.53l6.76-.21c3.1,0,6.09-.12,9-.29,3.23-.11,5.8-.2,7.53-.29a42.42,42.42,0,0,0,15.68-3.76c11.15-4,18-11,19.28-22.76a115.13,115.13,0,0,0,2.27-20.57Z"/><path class="cls-10" d="M365.57,346.39a16.2,16.2,0,0,1-7.67-2.13c-6.28-3.44-11.51-10.59-12.17-16.65a.38.38,0,0,1,.76-.08c.64,5.83,5.7,12.73,11.77,16.06,3.08,1.68,7.77,3.18,12.63.78a.38.38,0,0,1,.51.17.39.39,0,0,1-.17.52A12.63,12.63,0,0,1,365.57,346.39Z"/><path class="cls-10" d="M216.69,382.22c-.17-1.3-4.13-31.9.43-38.45,4.68-6.72,68.81-21.93,102.42-24.29l.07.91c-32.62,2.29-97.27,17.48-101.74,23.9-4.36,6.27-.31,37.5-.27,37.81Z"/><path class="cls-11" d="M302.75,184.89S311.08,171,332,165.68c3.71-.94,12.52-2.05,12.52-2.05l47.67.39s22.27-.39,35.84,9.45c9.1,6.59,14.63,19.65,13.72,34.28S415.11,310.18,401,320.24s-102.82,0-102.82,0-7.32-6.4,0-21,9.15-23.78,11-51.22,2.75-32.92,2.75-32.92l-17-6.4S296.47,192,302.75,184.89Z"/><path class="cls-12" d="M396.92,93.54c1.67-4,2.18-6.32-1.79-10.22-4.66-4.58-9.25-3.71-14.6-2.87a58.42,58.42,0,0,1-6.36-6,26.08,26.08,0,0,0-5.17-4c-2.62-1.38-7.29-.92-8.6,1.78-3.44-3.4-7.46-7.48-12.59-7.11-4.78.34-6.61,3.35-6.59,7.79-1.47-1.08-7.56-1-9.63-.38-3.35.93-5,4.11-6.13,7-2.43,6.14-2.13,16,6,17.24-4.86,3.56-2.56,9.27,3.19,10.81,3.17.85,7.65.07,10.92.07a21.18,21.18,0,0,0,5.17-.7c6.28,8.68,16.2,14.16,27.47,10,5.7-2.11,11.47-7.83,15.77-12.15C397.38,101.38,400.75,97.79,396.92,93.54Z"/><path class="cls-13" d="M385.47,163.74l-5.72-42-26.84,15.83-2.33,26.2h-6s-.64,12.79,19.49,13.1,28.12-13.1,28.12-13.1Z"/><path class="cls-8" d="M351.49,153.53s4.93,3.53,14.52,0,12.14-17.59,12.14-17.59l.64-5.75-25.88,7.35Z"/><path class="cls-13" d="M387.1,112.08a10.3,10.3,0,0,0-3.81,1c.62-4.81.93-8.41.93-8.41s1.27-7.47-2.51-11.6c-1.72-1.87-4.48-3-8.88-2.53-10.86,1.29-10.71,5.19-18.24,7-3.54.86-12.87,2.31-12.87,2.31s-3.19,19.81-3.19,27.16,1,20.45,14.06,22a25.33,25.33,0,0,0,26.2-14.7,54.28,54.28,0,0,0,2.88-10.77,14.42,14.42,0,0,0,4.5-1.65,7.17,7.17,0,0,0,3.81-6.43C390,112.94,388.75,112.09,387.1,112.08Z"/><path class="cls-8" d="M383.64,115.6l-1.1,4.9a5.58,5.58,0,0,0,2.49-.83,4.06,4.06,0,0,0,1.81-2.85c.27-1.59-.36-2-1.13-1.95A5.43,5.43,0,0,0,383.64,115.6Z"/><path class="cls-8" d="M353.07,134.6a5.89,5.89,0,0,1-1.77-.27,5.07,5.07,0,0,1-3.26-3,.46.46,0,0,1,.26-.59.45.45,0,0,1,.59.26,4.23,4.23,0,0,0,2.68,2.49,5.22,5.22,0,0,0,4.4-.64.45.45,0,0,1,.5.76A6.24,6.24,0,0,1,353.07,134.6Z"/><path class="cls-8" d="M351.4,126.86c-.34,0-.53,0-1.39-.06a.37.37,0,0,1-.29-.17.41.41,0,0,1,0-.34c1.73-4.28,4.34-10.74,4.6-15.33a.37.37,0,0,1,.38-.35.36.36,0,0,1,.35.39c-.25,4.54-2.71,10.77-4.45,15.09.54,0,.66,0,1.07,0h.83a.37.37,0,0,1,0,.73H351.4Z"/><path class="cls-12" d="M370,110.2a.37.37,0,0,1-.29-.14c-1.46-1.83-5.36-4.32-7.91-3.91a2.73,2.73,0,0,0-2.21,2,.37.37,0,1,1-.69-.26,3.52,3.52,0,0,1,2.78-2.43c3.06-.49,7.23,2.46,8.61,4.18a.38.38,0,0,1-.06.52A.4.4,0,0,1,370,110.2Z"/><path class="cls-12" d="M341.28,109.36a.41.41,0,0,1-.28-.13.37.37,0,0,1,0-.52c.4-.34.74-.67,1-1a5.31,5.31,0,0,1,3.87-2c2.39-.14,3.43.79,4.88,2.07l.43.37a.38.38,0,0,1,0,.52.37.37,0,0,1-.53,0l-.42-.38c-1.42-1.25-2.27-2-4.36-1.88a4.63,4.63,0,0,0-3.4,1.76c-.32.32-.67.65-1.08,1A.36.36,0,0,1,341.28,109.36Z"/><path class="cls-12" d="M346.16,116.69a.8.8,0,1,1-1.56,0,.8.8,0,1,1,1.56,0Z"/><path class="cls-12" d="M359.67,117.68a.8.8,0,1,1-.78-1A.9.9,0,0,1,359.67,117.68Z"/><path class="cls-12" d="M202,285H302.44a2.51,2.51,0,0,0,2.51-2.51H199.48A2.51,2.51,0,0,0,202,285Z"/><path class="cls-9" d="M241,280.76c.68,2.36-.69,4.28-3,4.28H151.61a6.13,6.13,0,0,1-5.51-4.28l-18-62.92c-.68-2.36.69-4.28,3.05-4.28h86.32a6.13,6.13,0,0,1,5.51,4.28Z"/><path class="cls-12" d="M240.13,280.76c.68,2.36-.69,4.28-3.06,4.28H150.75a6.15,6.15,0,0,1-5.51-4.28l-18-62.92c-.68-2.36.69-4.28,3.06-4.28h86.31a6.15,6.15,0,0,1,5.52,4.28Z"/><path class="cls-14" d="M183,239.2c1,3.5.2,6.81-1.8,7.39s-4.45-1.79-5.46-5.3-.2-6.81,1.8-7.39S181.94,235.69,183,239.2Z"/><path class="cls-13" d="M396.74,213.56s-4.77,47.37-24.69,54-44.27-9.21-67.2-9.56c-9.5-.15-16,2.48-19.6,5a51.68,51.68,0,0,0-7.75,6.46,24.84,24.84,0,0,0-3.66,4.45c-1.55,2.3-2.83,6.63-2.06,8.08a1,1,0,0,0,.88.56c.77,0,1.19-.76,1.89-2a26.6,26.6,0,0,1,2.15-3.36,14.72,14.72,0,0,1,1.65-1.87q-.45.74-1.08,1.83c-1.11,1.92-1.25,4.05-.75,4.92a.86.86,0,0,0,.75.48c.84,0,1.35-.87,1.94-1.87a10,10,0,0,1,1.45-2,23.51,23.51,0,0,1,2.19-1.92,6.65,6.65,0,0,0-.85,2c-.17.78-.49,2.68.16,3.49a.93.93,0,0,0,.75.37c.76,0,1.42-.89,2.26-2,.24-.33.5-.67.76-1a10.93,10.93,0,0,1,2.12-1.88,4,4,0,0,0-.42,1.3,4.4,4.4,0,0,0,.6,3.19,1,1,0,0,0,.79.39c.43,0,.61-.38.91-1s.55-2.41,1.93-3.8a26.58,26.58,0,0,0,3-2.7h.27c2.55-.21,6.86-3.83,6.86-3.83s39.84,39.84,80.81,29.58,55.66-84.63,55.66-84.63Z"/><path class="cls-15" d="M127.88,480.94v15.61H64.2s-4.46-4.12,0-7.8,44.11-15.14,44.11-15.14Z"/><path class="cls-16" d="M127.88,480.94l-7.21-2.71a22.74,22.74,0,0,0-1.36,2.71c-.62,1.49-1.1,3.23-.49,4.14.7,1.06,3.72,2.09,6.08,2.76,1.65.47,3,.76,3,.76Z"/><path class="cls-15" d="M267.83,488.27v15.61H204.16s-4.47-4.12,0-7.8,44.1-15.14,44.1-15.14Z"/><path class="cls-16" d="M267.83,488.27l-7.21-2.7a22.13,22.13,0,0,0-1.36,2.7c-.62,1.49-1.1,3.23-.49,4.14s3.72,2.09,6.08,2.76c1.65.47,3,.76,3,.76Z"/><path class="cls-2" d="M160,497.18V288.76h-4.37V497.19c-20,.15-35.79,2.06-35.79,4.39S137,506,158.24,506s38.43-2,38.43-4.4S180.39,497.29,160,497.18Z"/><polygon class="cls-3" points="159.98 324.31 155.61 333.91 155.61 288.76 159.98 288.76 159.98 324.31"/><rect class="cls-14" y="285.04" width="312.97" height="6.6"/><path class="cls-7" d="M111.13,262.67a37.36,37.36,0,0,0,.3-4.66c0-.37,0-.73,0-1.1h-36c0,.37,0,.73,0,1.1,0,11.41,5.09,21.09,12.17,24.62H99.27a19,19,0,0,0,7-6.38c.34,0,.68.06,1,.06,4.5,0,8.17-3.25,8.17-7.25A7.19,7.19,0,0,0,111.13,262.67Zm-3.83,12.22-.17,0a31.53,31.53,0,0,0,3.8-10.73,5.68,5.68,0,0,1,3.23,4.92C114.16,272.27,111.08,274.89,107.3,274.89Z"/><path class="cls-7" d="M115.46,281.93a57.69,57.69,0,0,1-20.07,3.41,57.69,57.69,0,0,1-20.07-3.41Z"/><path class="cls-17" d="M114.13,192.49c-2.58-4.27-16.11-4.25-25.07-4.24a46.09,46.09,0,0,1-6.44-.19c-3.69-.93-6.35-3.07-6.26-4.36.07-.9,1.5-1.56,3.94-1.81l2.44-.26a133.56,133.56,0,0,1,13.51-1,.41.41,0,0,0,.42-.41.42.42,0,0,0-.42-.42h0a134.92,134.92,0,0,0-13.6,1l-2.44.25c-3.74.39-4.6,1.61-4.67,2.58-.16,2.12,3.45,4.36,6.88,5.22a42.71,42.71,0,0,0,6.64.22c8.24,0,22,0,24.36,3.84a2.75,2.75,0,0,1-.18,2.85c-.84,1.6-7.62,1-10.88.74-1.09-.1-2-.17-2.47-.17l-2.56-.05c-5.89-.14-14-.33-18.27,3.69-2.16,2-3,3.91-2.44,5.66,1.29,4.23,10,5.8,11.7,6.08,8.28,1.3,13.78,3.53,15.47,6.26a3.66,3.66,0,0,1,.39,3.19c-.78,2.51-3.56,4.15-6.5,5.88-3.84,2.26-7.8,4.59-7.64,9.15.12,3.41,3,4.82,5.52,6.07l1.32.66a.35.35,0,0,0,.2,0,.41.41,0,0,0,.36-.22.41.41,0,0,0-.17-.56l-1.35-.68c-2.54-1.25-5-2.43-5-5.35-.14-4.06,3.6-6.27,7.23-8.4,3-1.74,6-3.54,6.87-6.35a4.52,4.52,0,0,0-.47-3.88c-2.34-3.77-10-5.69-16-6.64-4.54-.72-10.15-2.59-11-5.51-.43-1.42.31-3,2.21-4.81,4.08-3.79,11.94-3.6,17.69-3.46l2.57,0c.49,0,1.38.08,2.41.16,5.35.47,10.67.75,11.69-1.17A3.58,3.58,0,0,0,114.13,192.49Z"/></g><rect class="cls-14" x="147.07" width="136.1" height="92.26" rx="12"/><path class="cls-14" d="M183.23,121.15a5.27,5.27,0,0,1-5.27,5.27H156.41a5.27,5.27,0,0,1-5.27-5.27h0a5.27,5.27,0,0,1,5.27-5.27H178a5.27,5.27,0,0,1,5.27,5.27Z"/><path class="cls-11" d="M250.87,27a2.81,2.81,0,0,1-2.81,2.81H170A2.81,2.81,0,0,1,167.18,27h0a2.8,2.8,0,0,1,2.81-2.8h78.07a2.8,2.8,0,0,1,2.81,2.8Z"/><path class="cls-11" d="M210.09,46.13a2.81,2.81,0,0,1-2.81,2.81H170a2.81,2.81,0,0,1-2.81-2.81h0A2.81,2.81,0,0,1,170,43.32h37.29a2.81,2.81,0,0,1,2.81,2.81Z"/><path class="cls-11" d="M174.09,65.66a2.76,2.76,0,0,1-2.75,2.76h0a2.77,2.77,0,0,1-2.76-2.76h0a2.76,2.76,0,0,1,2.76-2.75h0a2.75,2.75,0,0,1,2.75,2.75Z"/><path class="cls-11" d="M189.68,65.66a2.76,2.76,0,0,1-2.75,2.76h0a2.76,2.76,0,0,1-2.75-2.76h0a2.75,2.75,0,0,1,2.75-2.75h0a2.75,2.75,0,0,1,2.75,2.75Z"/><path class="cls-11" d="M204.13,65.66a2.77,2.77,0,0,1-2.76,2.76h0a2.76,2.76,0,0,1-2.75-2.76h0a2.75,2.75,0,0,1,2.75-2.75h0a2.76,2.76,0,0,1,2.76,2.75Z"/></g></g></svg>