<svg xmlns="http://www.w3.org/2000/svg" viewBox="0 0 196.51 113.51"><defs><style>.cls-1{fill:#fff;fill-rule:evenodd;}</style></defs><g id="Warstwa_2" data-name="Warstwa 2"><g id="Warstwa_1-2" data-name="Warstwa 1"><path class="cls-1" d="M115.08,50.9h11.24c.53,0,.79-.19.79-.58a1.06,1.06,0,0,0-.14-.44L113.26,22.76a1.1,1.1,0,0,1,0-.51L126.32,1c.19-.34.23-.6.11-.77a.85.85,0,0,0-.69-.25H114.42a1,1,0,0,0-1,.58L102.32,18.69c-.1.14-.2.2-.29.18s-.15-.13-.15-.33V.87a.84.84,0,0,0-.25-.62A.89.89,0,0,0,101,0H90.71a.87.87,0,0,0-.87.87V39.72h12V36.43A1.12,1.12,0,0,1,102,36l2.46-3.92c.15-.29.31-.29.51,0l9.06,18.18A1.12,1.12,0,0,0,115.08,50.9Zm16.82,0h30.24a.82.82,0,0,0,.61-.25A.85.85,0,0,0,163,50V41.45a.85.85,0,0,0-.26-.62.83.83,0,0,0-.61-.26H143.43a.32.32,0,0,1-.36-.36V30.83a.32.32,0,0,1,.36-.36h11.31a.85.85,0,0,0,.62-.26.83.83,0,0,0,.25-.62V21a.82.82,0,0,0-.25-.61.85.85,0,0,0-.62-.26H143.43a.32.32,0,0,1-.36-.36V10.69a.32.32,0,0,1,.36-.36h18.71a.89.89,0,0,0,.87-.88V.87a.87.87,0,0,0-.87-.87H131.9a.89.89,0,0,0-.62.25.84.84,0,0,0-.25.62V50a.85.85,0,0,0,.87.87ZM30.74,56.51a17.32,17.32,0,0,0-8.86-2.25H1.74a1,1,0,0,0-.71.29,1,1,0,0,0-.29.71v56.49a1,1,0,0,0,.29.71,1,1,0,0,0,.71.29h9.73a1,1,0,0,0,1-1V90.06a.37.37,0,0,1,.42-.42h9a17.79,17.79,0,0,0,8.86-2.17,15,15,0,0,0,6-6.13,19.12,19.12,0,0,0,2.12-9.14,20,20,0,0,0-2.12-9.34A15.43,15.43,0,0,0,30.74,56.51ZM25.16,78.17A6.7,6.7,0,0,1,20,80.3H12.89a.37.37,0,0,1-.42-.42v-15a.37.37,0,0,1,.42-.42H20a6.67,6.67,0,0,1,5.2,2.17,8.37,8.37,0,0,1,2,5.84A8.11,8.11,0,0,1,25.16,78.17ZM73.63,56a21.43,21.43,0,0,0-10.15-2.33A21.19,21.19,0,0,0,53.37,56a16.7,16.7,0,0,0-6.78,6.6,19.58,19.58,0,0,0-2.41,9.84v22.2a19.79,19.79,0,0,0,2.41,9.93,16.74,16.74,0,0,0,6.78,6.59,21.07,21.07,0,0,0,10.11,2.34,21.32,21.32,0,0,0,10.15-2.34,16.69,16.69,0,0,0,6.83-6.59,19.89,19.89,0,0,0,2.41-9.93V72.45a19.68,19.68,0,0,0-2.41-9.84A16.65,16.65,0,0,0,73.63,56ZM71.14,95.15a8.55,8.55,0,0,1-2.08,6,7.17,7.17,0,0,1-5.58,2.3,7.05,7.05,0,0,1-5.49-2.3,8.51,8.51,0,0,1-2.08-6v-23A8.65,8.65,0,0,1,58,66.07a7.05,7.05,0,0,1,5.49-2.3,7.17,7.17,0,0,1,5.58,2.3,8.7,8.7,0,0,1,2.08,6.05ZM39.45,0H29.22a1,1,0,0,0-1,.58L20.38,13.82c-.15.29-.29.29-.44,0L12.11.58a1,1,0,0,0-1-.58H.87A.89.89,0,0,0,.25.25.84.84,0,0,0,0,.87V50a.85.85,0,0,0,.87.87h10.3a.82.82,0,0,0,.61-.25A.85.85,0,0,0,12,50V19.85c0-.19,0-.3.14-.33s.19,0,.29.19l5.66,9.45a1,1,0,0,0,1,.58h2a1,1,0,0,0,1-.58l5.66-9.45c.09-.15.19-.21.29-.19s.14.14.14.33V50a.85.85,0,0,0,.87.87h10.3a.82.82,0,0,0,.61-.25.85.85,0,0,0,.26-.62V.87A.87.87,0,0,0,39.45,0ZM72.37.73a1,1,0,0,0-1-.73H58.66a.94.94,0,0,0-1,.73L44.67,50c-.15.64.09.95.72.95H56.05a.87.87,0,0,0,.94-.8l1.45-6.4a.35.35,0,0,1,.37-.29H71.06a.34.34,0,0,1,.36.29l1.45,6.4a.88.88,0,0,0,.95.8h10.8c.53,0,.8-.22.8-.65l-.07-.3ZM69,34a.44.44,0,0,1-.29.11H61q-.43,0-.36-.36l4-18.11c0-.19.12-.29.22-.29s.16.1.21.29l4.06,18A.25.25,0,0,1,69,34ZM194.78,54.35H157.34a1,1,0,0,0-.71.29,1,1,0,0,0-.29.71v8.17a1,1,0,0,0,.29.71,1,1,0,0,0,.71.3h12.23c.28,0,.42.13.42.41v46.81a1,1,0,0,0,1,1h9.73a1,1,0,0,0,.71-.29,1,1,0,0,0,.29-.71V64.94c0-.28.14-.41.42-.41h12.64a1,1,0,0,0,1-1V55.35a1,1,0,0,0-1-1Zm-.28-35.83A13.46,13.46,0,0,0,189,14.24a21.23,21.23,0,0,0-15.7-.11,13.22,13.22,0,0,0-5.43,4.07,10.76,10.76,0,0,0-2.23,6c0,.42.29.68.85.78l10.23.63a.8.8,0,0,0,.92-.7,3.26,3.26,0,0,1,1.24-1.6,3.83,3.83,0,0,1,2.22-.6,3.72,3.72,0,0,1,2.75,1,3.55,3.55,0,0,1,1,2.62V27.9a.31.31,0,0,1-.35.35h-4.87q-7.14,0-10.84,2.62T165,39.65q0,5.81,3.14,8.28a12.53,12.53,0,0,0,8,2.47c3.81,0,6.54-1.25,8.19-3.61.09-.14.18-.18.28-.14a.3.3,0,0,1,.14.29V49a.85.85,0,0,0,.85.85h10a.84.84,0,0,0,.84-.85V24.71A10.17,10.17,0,0,0,194.5,18.52Zm-9.7,19.36a3.47,3.47,0,0,1-1.38,2.86,5,5,0,0,1-3.28,1.1,3.35,3.35,0,0,1-2.36-.81,2.89,2.89,0,0,1-.88-2.23,3,3,0,0,1,1.16-2.51,5.21,5.21,0,0,1,3.21-.89h3.18a.31.31,0,0,1,.35.35ZM150.43,54.35h-9.65a1,1,0,0,0-.71.29,1,1,0,0,0-.29.71V89c0,.23-.05.34-.16.34s-.23-.09-.34-.25l-15.89-34a1.17,1.17,0,0,0-1.16-.75H112.16a1,1,0,0,0-1,1v56.4a1,1,0,0,0,1,1h9.65a1,1,0,0,0,.71-.29,1,1,0,0,0,.29-.71l-.09-33.62c0-.23.06-.34.17-.34s.22.09.33.25l15.9,34a1.17,1.17,0,0,0,1.16.75h10.15a.94.94,0,0,0,.71-.29,1,1,0,0,0,.29-.71V55.35a1,1,0,0,0-.29-.71A.94.94,0,0,0,150.43,54.35Zm-49,0H91.69a.94.94,0,0,0-.71.29,1,1,0,0,0-.29.71v56.4a1,1,0,0,0,.29.71.94.94,0,0,0,.71.29h9.73a1,1,0,0,0,1-1V55.35a1,1,0,0,0-1-1ZM101,50.9a.85.85,0,0,0,.87-.87V43.1h-12V50a.85.85,0,0,0,.26.62.82.82,0,0,0,.61.25Z"/></g></g></svg>